<?xml version="1.0" encoding="UTF-8" standalone="no"?>
<!DOCTYPE svg PUBLIC "-//W3C//DTD SVG 1.1//EN" "http://www.w3.org/Graphics/SVG/1.1/DTD/svg11.dtd">
<svg width="100%" height="100%" viewBox="0 0 326 344" version="1.1" xmlns="http://www.w3.org/2000/svg" xmlns:xlink="http://www.w3.org/1999/xlink" xml:space="preserve" xmlns:serif="http://www.serif.com/" style="fill-rule:evenodd;clip-rule:evenodd;stroke-linejoin:round;stroke-miterlimit:2;">
    <g id="Artboard1" transform="matrix(0.836632,0,0,0.942472,-7.74303,-6.67632)">
        <rect x="9.255" y="7.084" width="388.707" height="364.157" style="fill:none;"/>
        <g transform="matrix(1.19527,0,0,1.06104,-20.2824,-0.343435)">
            <ellipse cx="101.298" cy="31.299" rx="11.899" ry="11.396" style="fill:url(#_Linear1);"/>
            <g transform="matrix(1,0,0,1,115.305,-0.335188)">
                <ellipse cx="101.298" cy="31.299" rx="11.899" ry="11.396" style="fill:url(#_Linear2);"/>
            </g>
            <g transform="matrix(1,0,0,1,92.8471,32.8484)">
                <ellipse cx="101.298" cy="31.299" rx="11.899" ry="11.396" style="fill:url(#_Linear3);"/>
            </g>
            <g transform="matrix(1,0,0,1,-41.5633,32.8484)">
                <ellipse cx="101.298" cy="31.299" rx="11.899" ry="11.396" style="fill:url(#_Linear4);"/>
            </g>
            <g transform="matrix(0.84507,0,0,0.838235,175.411,40.7607)">
                <ellipse cx="101.298" cy="31.299" rx="11.899" ry="11.396" style="fill:url(#_Linear5);"/>
            </g>
            <g transform="matrix(1.56338,0,0,1.55882,-30.6314,85.6214)">
                <ellipse cx="101.298" cy="31.299" rx="11.899" ry="11.396" style="fill:url(#_Linear6);"/>
            </g>
            <g transform="matrix(0.84507,0,0,0.838235,116.041,109.013)">
                <ellipse cx="101.298" cy="31.299" rx="11.899" ry="11.396" style="fill:url(#_Linear7);"/>
            </g>
            <g transform="matrix(1.57746,0,0,1.66176,-95.5763,115.08)">
                <ellipse cx="101.298" cy="31.299" rx="11.899" ry="11.396" style="fill:url(#_Linear8);"/>
            </g>
            <g transform="matrix(0.84507,0,0,0.838235,24.1995,141.862)">
                <ellipse cx="101.298" cy="31.299" rx="11.899" ry="11.396" style="fill:url(#_Linear9);"/>
            </g>
            <g transform="matrix(0.84507,0,0,0.838235,82.187,140.521)">
                <ellipse cx="101.298" cy="31.299" rx="11.899" ry="11.396" style="fill:url(#_Linear10);"/>
            </g>
            <g transform="matrix(0.84507,0,0,0.838235,213.246,135.493)">
                <ellipse cx="101.298" cy="31.299" rx="11.899" ry="11.396" style="fill:url(#_Linear11);"/>
            </g>
            <g transform="matrix(0.84507,0,0,0.838235,105.985,166.331)">
                <ellipse cx="101.298" cy="31.299" rx="11.899" ry="11.396" style="fill:url(#_Linear12);"/>
            </g>
            <g transform="matrix(0.84507,0,0,0.838235,30.5681,168.342)">
                <ellipse cx="101.298" cy="31.299" rx="11.899" ry="11.396" style="fill:url(#_Linear13);"/>
            </g>
            <g transform="matrix(1.25352,0,0,1.29412,115.391,171.67)">
                <ellipse cx="101.298" cy="31.299" rx="11.899" ry="11.396" style="fill:url(#_Linear14);"/>
            </g>
            <g transform="matrix(0.84507,0,0,0.838235,103.974,193.146)">
                <ellipse cx="101.298" cy="31.299" rx="11.899" ry="11.396" style="fill:url(#_Linear15);"/>
            </g>
            <g transform="matrix(0.84507,0,0,0.838235,221.625,185.101)">
                <ellipse cx="101.298" cy="31.299" rx="11.899" ry="11.396" style="fill:url(#_Linear16);"/>
            </g>
            <g transform="matrix(1.57746,0,0,1.67647,41.8508,200.931)">
                <ellipse cx="101.298" cy="31.299" rx="11.899" ry="11.396" style="fill:url(#_Linear17);"/>
            </g>
            <g transform="matrix(0.84507,0,0,0.838235,227.659,221.301)">
                <ellipse cx="101.298" cy="31.299" rx="11.899" ry="11.396" style="fill:url(#_Linear18);"/>
            </g>
            <g transform="matrix(0.943662,0,0,0.897059,233.593,245.94)">
                <ellipse cx="101.298" cy="31.299" rx="11.899" ry="11.396" style="fill:url(#_Linear19);"/>
            </g>
            <g transform="matrix(0.943662,0,0,0.897059,121.64,307.279)">
                <ellipse cx="101.298" cy="31.299" rx="11.899" ry="11.396" style="fill:url(#_Linear20);"/>
            </g>
            <g transform="matrix(1.50704,0,0,1.61765,111.162,232.604)">
                <ellipse cx="101.298" cy="31.299" rx="11.899" ry="11.396" style="fill:url(#_Linear21);"/>
            </g>
            <g transform="matrix(1.66197,0,0,1.63235,82.5631,111.643)">
                <ellipse cx="101.298" cy="31.299" rx="11.899" ry="11.396" style="fill:url(#_Linear22);"/>
            </g>
            <g transform="matrix(1,0,0,1,2.6815,70.7247)">
                <ellipse cx="101.298" cy="31.299" rx="11.899" ry="11.396" style="fill:url(#_Linear23);"/>
            </g>
            <g transform="matrix(1,0,0,1,-57.6524,70.3895)">
                <ellipse cx="101.298" cy="31.299" rx="11.899" ry="11.396" style="fill:url(#_Linear24);"/>
            </g>
            <g transform="matrix(0.84507,0,0,0.838235,93.9605,78.9721)">
                <ellipse cx="101.298" cy="31.299" rx="11.899" ry="11.396" style="fill:url(#_Linear25);"/>
            </g>
            <g transform="matrix(0.84507,0,0,0.838235,123.993,78.4358)">
                <ellipse cx="101.298" cy="31.299" rx="11.899" ry="11.396" style="fill:url(#_Linear26);"/>
            </g>
            <g transform="matrix(1.39437,0,0,1.42647,119.266,59.8903)">
                <ellipse cx="101.298" cy="31.299" rx="11.899" ry="11.396" style="fill:url(#_Linear27);"/>
            </g>
            <g transform="matrix(0.84507,0,0,0.838235,72.1733,4.56036)">
                <ellipse cx="101.298" cy="31.299" rx="11.899" ry="11.396" style="fill:url(#_Linear28);"/>
            </g>
            <g transform="matrix(1.39437,0,0,1.45588,-8.1057,18.7472)">
                <ellipse cx="101.298" cy="31.299" rx="11.899" ry="11.396" style="fill:url(#_Linear29);"/>
            </g>
            <g transform="matrix(0.753208,-0.33249,0.403836,0.914831,-49.8714,110.56)">
                <rect x="107.352" y="27.881" width="110.277" height="6.369" style="fill:url(#_Linear30);"/>
            </g>
            <g transform="matrix(0.28268,-0.394215,0.812662,0.582735,73.5049,94.4432)">
                <rect x="107.352" y="27.881" width="110.277" height="6.369" style="fill:url(#_Linear31);"/>
            </g>
            <g transform="matrix(0.409318,-0.260331,0.536663,0.843796,70.5512,136.309)">
                <rect x="107.352" y="27.881" width="110.277" height="6.369" style="fill:url(#_Linear32);"/>
            </g>
            <g transform="matrix(0.470605,-0.117663,0.242559,0.970137,9.39515,138.698)">
                <rect x="107.352" y="27.881" width="110.277" height="6.369" style="fill:url(#_Linear33);"/>
            </g>
            <g transform="matrix(0.262815,-0.407727,0.840517,0.541786,52.7394,196.456)">
                <rect x="107.352" y="27.881" width="110.277" height="6.369" style="fill:url(#_Linear34);"/>
            </g>
            <g transform="matrix(-0.566445,-0.563272,0.705118,-0.70909,232.451,276.474)">
                <rect x="107.352" y="27.881" width="110.277" height="6.369" style="fill:url(#_Linear35);"/>
            </g>
            <g transform="matrix(-0.411005,-0.257659,0.531155,-0.847274,276.083,216.563)">
                <rect x="107.352" y="27.881" width="110.277" height="6.369" style="fill:url(#_Linear36);"/>
            </g>
            <g transform="matrix(-0.485018,0.00842985,-0.0173779,-0.999849,352.746,191.138)">
                <rect x="107.352" y="27.881" width="110.277" height="6.369" style="fill:url(#_Linear37);"/>
            </g>
            <g transform="matrix(0.422692,-0.238002,0.490634,0.871366,55.0597,194.504)">
                <rect x="107.352" y="27.881" width="110.277" height="6.369" style="fill:url(#_Linear38);"/>
            </g>
            <g transform="matrix(0.409318,-0.260331,0.536663,0.843796,153.007,99.7731)">
                <rect x="107.352" y="27.881" width="110.277" height="6.369" style="fill:url(#_Linear39);"/>
            </g>
            <g transform="matrix(0.504673,-0.376637,0.5981,0.801421,119.828,230.342)">
                <rect x="107.352" y="27.881" width="110.277" height="6.369" style="fill:url(#_Linear40);"/>
            </g>
            <g transform="matrix(0.504673,-0.376637,0.5981,0.801421,187.201,304.419)">
                <rect x="107.352" y="27.881" width="110.277" height="6.369" style="fill:url(#_Linear41);"/>
            </g>
            <g transform="matrix(0.386392,-0.497244,0.789624,0.613591,151.869,371.75)">
                <rect x="107.352" y="27.881" width="110.277" height="6.369" style="fill:url(#_Linear42);"/>
            </g>
            <g transform="matrix(0.528197,0.342868,-0.544475,0.838777,209.822,107.911)">
                <rect x="107.352" y="27.881" width="110.277" height="6.369" style="fill:url(#_Linear43);"/>
            </g>
            <g transform="matrix(0.477611,0.219553,-0.417673,0.908598,166.127,203.641)">
                <rect x="107.352" y="27.881" width="110.277" height="6.369" style="fill:url(#_Linear44);"/>
            </g>
            <g transform="matrix(-0.146301,0.612492,-0.972638,-0.232325,302.891,95.027)">
                <rect x="107.352" y="27.881" width="110.277" height="6.369" style="fill:url(#_Linear45);"/>
            </g>
            <g transform="matrix(0.236121,0.583778,-0.927041,0.374961,246.038,137.139)">
                <rect x="107.352" y="27.881" width="110.277" height="6.369" style="fill:url(#_Linear46);"/>
            </g>
            <g transform="matrix(0.409318,-0.260331,0.536663,0.843796,144.963,134.633)">
                <rect x="107.352" y="27.881" width="110.277" height="6.369" style="fill:url(#_Linear47);"/>
            </g>
            <g transform="matrix(0.504044,0.403042,-0.624513,0.781015,17.9791,-8.13311)">
                <rect x="107.352" y="27.881" width="110.277" height="6.369" style="fill:url(#_Linear48);"/>
            </g>
            <g transform="matrix(0.363001,0.321782,-0.663344,0.748315,138.819,-27.0436)">
                <rect x="107.352" y="27.881" width="110.277" height="6.369" style="fill:url(#_Linear49);"/>
            </g>
            <g transform="matrix(0.363001,0.321782,-0.663344,0.748315,199.823,-28.0491)">
                <rect x="107.352" y="27.881" width="110.277" height="6.369" style="fill:url(#_Linear50);"/>
            </g>
            <g transform="matrix(0.252126,-0.347375,0.809301,0.587394,139.11,86.4987)">
                <rect x="107.352" y="27.881" width="110.277" height="6.369" style="fill:url(#_Linear51);"/>
            </g>
            <g transform="matrix(0.252126,-0.347375,0.809301,0.587394,53.3015,119.682)">
                <rect x="107.352" y="27.881" width="110.277" height="6.369" style="fill:url(#_Linear52);"/>
            </g>
            <g transform="matrix(0.321705,0.284153,-0.662009,0.749496,127.924,17.0569)">
                <rect x="107.352" y="27.881" width="110.277" height="6.369" style="fill:url(#_Linear53);"/>
            </g>
            <g transform="matrix(0.59366,0.323226,-0.478181,0.878261,144.607,2.82203)">
                <rect x="107.352" y="27.881" width="110.277" height="6.369" style="fill:url(#_Linear54);"/>
            </g>
            <g transform="matrix(0.396969,0.386867,-0.697935,0.716161,75.9283,-36.705)">
                <rect x="107.352" y="27.881" width="110.277" height="6.369" style="fill:url(#_Linear55);"/>
            </g>
            <g transform="matrix(0.220552,0.29595,-0.801831,0.597551,180.954,54.7353)">
                <rect x="107.352" y="27.881" width="110.277" height="6.369" style="fill:url(#_Linear56);"/>
            </g>
            <g transform="matrix(0.220552,0.29595,-0.801831,0.597551,105.536,49.3723)">
                <rect x="107.352" y="27.881" width="110.277" height="6.369" style="fill:url(#_Linear57);"/>
            </g>
            <g transform="matrix(0.678888,0.256174,-0.353045,0.935606,-18.5094,47.52)">
                <rect x="107.352" y="27.881" width="110.277" height="6.369" style="fill:url(#_Linear58);"/>
            </g>
            <g transform="matrix(0.705286,-0.123134,0.171985,0.985099,173.91,270.061)">
                <rect x="107.352" y="27.881" width="110.277" height="6.369" style="fill:url(#_Linear59);"/>
            </g>
        </g>
    </g>
    <defs>
        <linearGradient id="_Linear1" x1="0" y1="0" x2="1" y2="0" gradientUnits="userSpaceOnUse" gradientTransform="matrix(277.201,4.35745,-4.35745,277.201,52.3816,126.761)"><stop offset="0" style="stop-color:rgb(218,120,22);stop-opacity:1"/><stop offset="1" style="stop-color:rgb(141,0,91);stop-opacity:1"/></linearGradient>
        <linearGradient id="_Linear2" x1="0" y1="0" x2="1" y2="0" gradientUnits="userSpaceOnUse" gradientTransform="matrix(277.201,4.35745,-4.35745,277.201,-62.9231,127.096)"><stop offset="0" style="stop-color:rgb(218,120,22);stop-opacity:1"/><stop offset="1" style="stop-color:rgb(141,0,91);stop-opacity:1"/></linearGradient>
        <linearGradient id="_Linear3" x1="0" y1="0" x2="1" y2="0" gradientUnits="userSpaceOnUse" gradientTransform="matrix(277.201,4.35745,-4.35745,277.201,-40.4655,93.9126)"><stop offset="0" style="stop-color:rgb(218,120,22);stop-opacity:1"/><stop offset="1" style="stop-color:rgb(141,0,91);stop-opacity:1"/></linearGradient>
        <linearGradient id="_Linear4" x1="0" y1="0" x2="1" y2="0" gradientUnits="userSpaceOnUse" gradientTransform="matrix(277.201,4.35745,-4.35745,277.201,93.945,93.9126)"><stop offset="0" style="stop-color:rgb(218,120,22);stop-opacity:1"/><stop offset="1" style="stop-color:rgb(141,0,91);stop-opacity:1"/></linearGradient>
        <linearGradient id="_Linear5" x1="0" y1="0" x2="1" y2="0" gradientUnits="userSpaceOnUse" gradientTransform="matrix(328.021,5.19836,-5.15631,330.695,-145.585,102.597)"><stop offset="0" style="stop-color:rgb(218,120,22);stop-opacity:1"/><stop offset="1" style="stop-color:rgb(141,0,91);stop-opacity:1"/></linearGradient>
        <linearGradient id="_Linear6" x1="0" y1="0" x2="1" y2="0" gradientUnits="userSpaceOnUse" gradientTransform="matrix(177.308,2.79534,-2.78719,177.827,53.0984,26.3915)"><stop offset="0" style="stop-color:rgb(218,120,22);stop-opacity:1"/><stop offset="1" style="stop-color:rgb(141,0,91);stop-opacity:1"/></linearGradient>
        <linearGradient id="_Linear7" x1="0" y1="0" x2="1" y2="0" gradientUnits="userSpaceOnUse" gradientTransform="matrix(328.021,5.19836,-5.15631,330.695,-75.3303,21.1727)"><stop offset="0" style="stop-color:rgb(218,120,22);stop-opacity:1"/><stop offset="1" style="stop-color:rgb(141,0,91);stop-opacity:1"/></linearGradient>
        <linearGradient id="_Linear8" x1="0" y1="0" x2="1" y2="0" gradientUnits="userSpaceOnUse" gradientTransform="matrix(175.725,2.62218,-2.76231,166.811,93.7948,7.02916)"><stop offset="0" style="stop-color:rgb(218,120,22);stop-opacity:1"/><stop offset="1" style="stop-color:rgb(141,0,91);stop-opacity:1"/></linearGradient>
        <linearGradient id="_Linear9" x1="0" y1="0" x2="1" y2="0" gradientUnits="userSpaceOnUse" gradientTransform="matrix(328.021,5.19836,-5.15631,330.695,33.3489,-18.0149)"><stop offset="0" style="stop-color:rgb(218,120,22);stop-opacity:1"/><stop offset="1" style="stop-color:rgb(141,0,91);stop-opacity:1"/></linearGradient>
        <linearGradient id="_Linear10" x1="0" y1="0" x2="1" y2="0" gradientUnits="userSpaceOnUse" gradientTransform="matrix(328.021,5.19836,-5.15631,330.695,-35.2697,-16.4155)"><stop offset="0" style="stop-color:rgb(218,120,22);stop-opacity:1"/><stop offset="1" style="stop-color:rgb(141,0,91);stop-opacity:1"/></linearGradient>
        <linearGradient id="_Linear11" x1="0" y1="0" x2="1" y2="0" gradientUnits="userSpaceOnUse" gradientTransform="matrix(328.021,5.19836,-5.15631,330.695,-190.356,-10.4174)"><stop offset="0" style="stop-color:rgb(218,120,22);stop-opacity:1"/><stop offset="1" style="stop-color:rgb(141,0,91);stop-opacity:1"/></linearGradient>
        <linearGradient id="_Linear12" x1="0" y1="0" x2="1" y2="0" gradientUnits="userSpaceOnUse" gradientTransform="matrix(328.021,5.19836,-5.15631,330.695,-63.4311,-47.2057)"><stop offset="0" style="stop-color:rgb(218,120,22);stop-opacity:1"/><stop offset="1" style="stop-color:rgb(141,0,91);stop-opacity:1"/></linearGradient>
        <linearGradient id="_Linear13" x1="0" y1="0" x2="1" y2="0" gradientUnits="userSpaceOnUse" gradientTransform="matrix(328.021,5.19836,-5.15631,330.695,25.8127,-49.605)"><stop offset="0" style="stop-color:rgb(218,120,22);stop-opacity:1"/><stop offset="1" style="stop-color:rgb(141,0,91);stop-opacity:1"/></linearGradient>
        <linearGradient id="_Linear14" x1="0" y1="0" x2="1" y2="0" gradientUnits="userSpaceOnUse" gradientTransform="matrix(221.138,3.36712,-3.47616,214.2,-50.266,-34.7025)"><stop offset="0" style="stop-color:rgb(218,120,22);stop-opacity:1"/><stop offset="1" style="stop-color:rgb(141,0,91);stop-opacity:1"/></linearGradient>
        <linearGradient id="_Linear15" x1="0" y1="0" x2="1" y2="0" gradientUnits="userSpaceOnUse" gradientTransform="matrix(328.021,5.19836,-5.15631,330.695,-61.0513,-79.1956)"><stop offset="0" style="stop-color:rgb(218,120,22);stop-opacity:1"/><stop offset="1" style="stop-color:rgb(141,0,91);stop-opacity:1"/></linearGradient>
        <linearGradient id="_Linear16" x1="0" y1="0" x2="1" y2="0" gradientUnits="userSpaceOnUse" gradientTransform="matrix(328.021,5.19836,-5.15631,330.695,-200.272,-69.5986)"><stop offset="0" style="stop-color:rgb(218,120,22);stop-opacity:1"/><stop offset="1" style="stop-color:rgb(141,0,91);stop-opacity:1"/></linearGradient>
        <linearGradient id="_Linear17" x1="0" y1="0" x2="1" y2="0" gradientUnits="userSpaceOnUse" gradientTransform="matrix(175.725,2.59918,-2.76231,165.348,6.67578,-44.2417)"><stop offset="0" style="stop-color:rgb(218,120,22);stop-opacity:1"/><stop offset="1" style="stop-color:rgb(141,0,91);stop-opacity:1"/></linearGradient>
        <linearGradient id="_Linear18" x1="0" y1="0" x2="1" y2="0" gradientUnits="userSpaceOnUse" gradientTransform="matrix(328.021,5.19836,-5.15631,330.695,-207.411,-112.785)"><stop offset="0" style="stop-color:rgb(218,120,22);stop-opacity:1"/><stop offset="1" style="stop-color:rgb(141,0,91);stop-opacity:1"/></linearGradient>
        <linearGradient id="_Linear19" x1="0" y1="0" x2="1" y2="0" gradientUnits="userSpaceOnUse" gradientTransform="matrix(293.75,4.85748,-4.61759,309.01,-192.03,-132.855)"><stop offset="0" style="stop-color:rgb(218,120,22);stop-opacity:1"/><stop offset="1" style="stop-color:rgb(141,0,91);stop-opacity:1"/></linearGradient>
        <linearGradient id="_Linear20" x1="0" y1="0" x2="1" y2="0" gradientUnits="userSpaceOnUse" gradientTransform="matrix(293.75,4.85748,-4.61759,309.01,-73.3933,-201.234)"><stop offset="0" style="stop-color:rgb(218,120,22);stop-opacity:1"/><stop offset="1" style="stop-color:rgb(141,0,91);stop-opacity:1"/></linearGradient>
        <linearGradient id="_Linear21" x1="0" y1="0" x2="1" y2="0" gradientUnits="userSpaceOnUse" gradientTransform="matrix(183.937,2.69369,-2.89139,171.36,-39.0037,-65.43)"><stop offset="0" style="stop-color:rgb(218,120,22);stop-opacity:1"/><stop offset="1" style="stop-color:rgb(141,0,91);stop-opacity:1"/></linearGradient>
        <linearGradient id="_Linear22" x1="0" y1="0" x2="1" y2="0" gradientUnits="userSpaceOnUse" gradientTransform="matrix(166.79,2.66943,-2.62185,169.817,-18.16,9.26128)"><stop offset="0" style="stop-color:rgb(218,120,22);stop-opacity:1"/><stop offset="1" style="stop-color:rgb(141,0,91);stop-opacity:1"/></linearGradient>
        <linearGradient id="_Linear23" x1="0" y1="0" x2="1" y2="0" gradientUnits="userSpaceOnUse" gradientTransform="matrix(277.201,4.35745,-4.35745,277.201,49.7001,56.0363)"><stop offset="0" style="stop-color:rgb(218,120,22);stop-opacity:1"/><stop offset="1" style="stop-color:rgb(141,0,91);stop-opacity:1"/></linearGradient>
        <linearGradient id="_Linear24" x1="0" y1="0" x2="1" y2="0" gradientUnits="userSpaceOnUse" gradientTransform="matrix(277.201,4.35745,-4.35745,277.201,110.034,56.3715)"><stop offset="0" style="stop-color:rgb(218,120,22);stop-opacity:1"/><stop offset="1" style="stop-color:rgb(141,0,91);stop-opacity:1"/></linearGradient>
        <linearGradient id="_Linear25" x1="0" y1="0" x2="1" y2="0" gradientUnits="userSpaceOnUse" gradientTransform="matrix(328.021,5.19836,-5.15631,330.695,-49.2016,57.0113)"><stop offset="0" style="stop-color:rgb(218,120,22);stop-opacity:1"/><stop offset="1" style="stop-color:rgb(141,0,91);stop-opacity:1"/></linearGradient>
        <linearGradient id="_Linear26" x1="0" y1="0" x2="1" y2="0" gradientUnits="userSpaceOnUse" gradientTransform="matrix(328.021,5.19836,-5.15631,330.695,-84.7405,57.6511)"><stop offset="0" style="stop-color:rgb(218,120,22);stop-opacity:1"/><stop offset="1" style="stop-color:rgb(141,0,91);stop-opacity:1"/></linearGradient>
        <linearGradient id="_Linear27" x1="0" y1="0" x2="1" y2="0" gradientUnits="userSpaceOnUse" gradientTransform="matrix(198.8,3.0547,-3.12504,194.326,-47.9674,46.8784)"><stop offset="0" style="stop-color:rgb(218,120,22);stop-opacity:1"/><stop offset="1" style="stop-color:rgb(141,0,91);stop-opacity:1"/></linearGradient>
        <linearGradient id="_Linear28" x1="0" y1="0" x2="1" y2="0" gradientUnits="userSpaceOnUse" gradientTransform="matrix(328.021,5.19836,-5.15631,330.695,-23.4201,145.783)"><stop offset="0" style="stop-color:rgb(218,120,22);stop-opacity:1"/><stop offset="1" style="stop-color:rgb(141,0,91);stop-opacity:1"/></linearGradient>
        <linearGradient id="_Linear29" x1="0" y1="0" x2="1" y2="0" gradientUnits="userSpaceOnUse" gradientTransform="matrix(198.8,2.99299,-3.12504,190.4,43.3798,74.1913)"><stop offset="0" style="stop-color:rgb(218,120,22);stop-opacity:1"/><stop offset="1" style="stop-color:rgb(141,0,91);stop-opacity:1"/></linearGradient>
        <linearGradient id="_Linear30" x1="0" y1="0" x2="1" y2="0" gradientUnits="userSpaceOnUse" gradientTransform="matrix(305.87,115.93,-140.806,251.832,105.67,56.115)"><stop offset="0" style="stop-color:rgb(218,120,22);stop-opacity:1"/><stop offset="1" style="stop-color:rgb(141,0,91);stop-opacity:1"/></linearGradient>
        <linearGradient id="_Linear31" x1="0" y1="0" x2="1" y2="0" gradientUnits="userSpaceOnUse" gradientTransform="matrix(325.698,227.81,-469.622,157.993,-79.5164,1.66662)"><stop offset="0" style="stop-color:rgb(218,120,22);stop-opacity:1"/><stop offset="1" style="stop-color:rgb(141,0,91);stop-opacity:1"/></linearGradient>
        <linearGradient id="_Linear32" x1="0" y1="0" x2="1" y2="0" gradientUnits="userSpaceOnUse" gradientTransform="matrix(477.358,152.44,-314.251,231.562,-21.0426,-17.8072)"><stop offset="0" style="stop-color:rgb(218,120,22);stop-opacity:1"/><stop offset="1" style="stop-color:rgb(141,0,91);stop-opacity:1"/></linearGradient>
        <linearGradient id="_Linear33" x1="0" y1="0" x2="1" y2="0" gradientUnits="userSpaceOnUse" gradientTransform="matrix(552.196,71.4649,-147.323,267.865,91.9379,-1.15402)"><stop offset="0" style="stop-color:rgb(218,120,22);stop-opacity:1"/><stop offset="1" style="stop-color:rgb(141,0,91);stop-opacity:1"/></linearGradient>
        <linearGradient id="_Linear34" x1="0" y1="0" x2="1" y2="0" gradientUnits="userSpaceOnUse" gradientTransform="matrix(302.048,235.352,-485.172,146.521,120.361,-38.0605)"><stop offset="0" style="stop-color:rgb(218,120,22);stop-opacity:1"/><stop offset="1" style="stop-color:rgb(141,0,91);stop-opacity:1"/></linearGradient>
        <linearGradient id="_Linear35" x1="0" y1="0" x2="1" y2="0" gradientUnits="userSpaceOnUse" gradientTransform="matrix(-249.905,192.369,-240.813,-199.633,291.989,-20.8097)"><stop offset="0" style="stop-color:rgb(218,120,22);stop-opacity:1"/><stop offset="1" style="stop-color:rgb(141,0,91);stop-opacity:1"/></linearGradient>
        <linearGradient id="_Linear36" x1="0" y1="0" x2="1" y2="0" gradientUnits="userSpaceOnUse" gradientTransform="matrix(-488.938,143.545,-295.913,-237.179,489.053,-42.7331)"><stop offset="0" style="stop-color:rgb(218,120,22);stop-opacity:1"/><stop offset="1" style="stop-color:rgb(141,0,91);stop-opacity:1"/></linearGradient>
        <linearGradient id="_Linear37" x1="0" y1="0" x2="1" y2="0" gradientUnits="userSpaceOnUse" gradientTransform="matrix(-571.198,-9.17394,18.9118,-277.083,616.792,69.5871)"><stop offset="0" style="stop-color:rgb(218,120,22);stop-opacity:1"/><stop offset="1" style="stop-color:rgb(141,0,91);stop-opacity:1"/></linearGradient>
        <linearGradient id="_Linear38" x1="0" y1="0" x2="1" y2="0" gradientUnits="userSpaceOnUse" gradientTransform="matrix(493.526,139.801,-288.195,239.405,63.7066,-60.343)"><stop offset="0" style="stop-color:rgb(218,120,22);stop-opacity:1"/><stop offset="1" style="stop-color:rgb(141,0,91);stop-opacity:1"/></linearGradient>
        <linearGradient id="_Linear39" x1="0" y1="0" x2="1" y2="0" gradientUnits="userSpaceOnUse" gradientTransform="matrix(477.358,152.44,-314.251,231.562,-204.892,-31.2299)"><stop offset="0" style="stop-color:rgb(218,120,22);stop-opacity:1"/><stop offset="1" style="stop-color:rgb(141,0,91);stop-opacity:1"/></linearGradient>
        <linearGradient id="_Linear40" x1="0" y1="0" x2="1" y2="0" gradientUnits="userSpaceOnUse" gradientTransform="matrix(348.643,169.286,-268.826,219.548,12.5432,-123.352)"><stop offset="0" style="stop-color:rgb(218,120,22);stop-opacity:1"/><stop offset="1" style="stop-color:rgb(141,0,91);stop-opacity:1"/></linearGradient>
        <linearGradient id="_Linear41" x1="0" y1="0" x2="1" y2="0" gradientUnits="userSpaceOnUse" gradientTransform="matrix(348.643,169.286,-268.826,219.548,-2.84261,-223.014)"><stop offset="0" style="stop-color:rgb(218,120,22);stop-opacity:1"/><stop offset="1" style="stop-color:rgb(141,0,91);stop-opacity:1"/></linearGradient>
        <linearGradient id="_Linear42" x1="0" y1="0" x2="1" y2="0" gradientUnits="userSpaceOnUse" gradientTransform="matrix(264.635,221.558,-351.834,166.647,210.259,-228.88)"><stop offset="0" style="stop-color:rgb(218,120,22);stop-opacity:1"/><stop offset="1" style="stop-color:rgb(141,0,91);stop-opacity:1"/></linearGradient>
        <linearGradient id="_Linear43" x1="0" y1="0" x2="1" y2="0" gradientUnits="userSpaceOnUse" gradientTransform="matrix(372.993,-147.274,233.871,234.882,-193.41,101.533)"><stop offset="0" style="stop-color:rgb(218,120,22);stop-opacity:1"/><stop offset="1" style="stop-color:rgb(141,0,91);stop-opacity:1"/></linearGradient>
        <linearGradient id="_Linear44" x1="0" y1="0" x2="1" y2="0" gradientUnits="userSpaceOnUse" gradientTransform="matrix(482.603,-111.82,212.724,253.684,-257.695,-22.3446)"><stop offset="0" style="stop-color:rgb(218,120,22);stop-opacity:1"/><stop offset="1" style="stop-color:rgb(141,0,91);stop-opacity:1"/></linearGradient>
        <linearGradient id="_Linear45" x1="0" y1="0" x2="1" y2="0" gradientUnits="userSpaceOnUse" gradientTransform="matrix(-95.5381,-270.628,429.758,-60.1625,141.436,236.283)"><stop offset="0" style="stop-color:rgb(218,120,22);stop-opacity:1"/><stop offset="1" style="stop-color:rgb(141,0,91);stop-opacity:1"/></linearGradient>
        <linearGradient id="_Linear46" x1="0" y1="0" x2="1" y2="0" gradientUnits="userSpaceOnUse" gradientTransform="matrix(171.471,-255.342,405.484,107.979,-130.589,175.636)"><stop offset="0" style="stop-color:rgb(218,120,22);stop-opacity:1"/><stop offset="1" style="stop-color:rgb(141,0,91);stop-opacity:1"/></linearGradient>
        <linearGradient id="_Linear47" x1="0" y1="0" x2="1" y2="0" gradientUnits="userSpaceOnUse" gradientTransform="matrix(477.358,152.44,-314.251,231.562,-152.333,-56.3271)"><stop offset="0" style="stop-color:rgb(218,120,22);stop-opacity:1"/><stop offset="1" style="stop-color:rgb(141,0,91);stop-opacity:1"/></linearGradient>
        <linearGradient id="_Linear48" x1="0" y1="0" x2="1" y2="0" gradientUnits="userSpaceOnUse" gradientTransform="matrix(339.679,-169.712,262.968,219.219,172.168,83.8695)"><stop offset="0" style="stop-color:rgb(218,120,22);stop-opacity:1"/><stop offset="1" style="stop-color:rgb(141,0,91);stop-opacity:1"/></linearGradient>
        <linearGradient id="_Linear49" x1="0" y1="0" x2="1" y2="0" gradientUnits="userSpaceOnUse" gradientTransform="matrix(433.576,-180.618,372.339,210.324,76.982,172.432)"><stop offset="0" style="stop-color:rgb(218,120,22);stop-opacity:1"/><stop offset="1" style="stop-color:rgb(141,0,91);stop-opacity:1"/></linearGradient>
        <linearGradient id="_Linear50" x1="0" y1="0" x2="1" y2="0" gradientUnits="userSpaceOnUse" gradientTransform="matrix(433.576,-180.618,372.339,210.324,-15.7498,213.651)"><stop offset="0" style="stop-color:rgb(218,120,22);stop-opacity:1"/><stop offset="1" style="stop-color:rgb(141,0,91);stop-opacity:1"/></linearGradient>
        <linearGradient id="_Linear51" x1="0" y1="0" x2="1" y2="0" gradientUnits="userSpaceOnUse" gradientTransform="matrix(371.13,226.898,-528.619,159.299,-194.6,-46.5392)"><stop offset="0" style="stop-color:rgb(218,120,22);stop-opacity:1"/><stop offset="1" style="stop-color:rgb(141,0,91);stop-opacity:1"/></linearGradient>
        <linearGradient id="_Linear52" x1="0" y1="0" x2="1" y2="0" gradientUnits="userSpaceOnUse" gradientTransform="matrix(371.13,226.898,-528.619,159.299,-14.6057,3.41354)"><stop offset="0" style="stop-color:rgb(218,120,22);stop-opacity:1"/><stop offset="1" style="stop-color:rgb(141,0,91);stop-opacity:1"/></linearGradient>
        <linearGradient id="_Linear53" x1="0" y1="0" x2="1" y2="0" gradientUnits="userSpaceOnUse" gradientTransform="matrix(490.754,-180.243,419.925,210.645,37.2909,132.233)"><stop offset="0" style="stop-color:rgb(218,120,22);stop-opacity:1"/><stop offset="1" style="stop-color:rgb(141,0,91);stop-opacity:1"/></linearGradient>
        <linearGradient id="_Linear54" x1="0" y1="0" x2="1" y2="0" gradientUnits="userSpaceOnUse" gradientTransform="matrix(363.249,-128.725,190.436,245.538,-32.1509,152.951)"><stop offset="0" style="stop-color:rgb(218,120,22);stop-opacity:1"/><stop offset="1" style="stop-color:rgb(141,0,91);stop-opacity:1"/></linearGradient>
        <linearGradient id="_Linear55" x1="0" y1="0" x2="1" y2="0" gradientUnits="userSpaceOnUse" gradientTransform="matrix(363.631,-190.347,343.4,201.561,175.402,133.502)"><stop offset="0" style="stop-color:rgb(218,120,22);stop-opacity:1"/><stop offset="1" style="stop-color:rgb(141,0,91);stop-opacity:1"/></linearGradient>
        <linearGradient id="_Linear56" x1="0" y1="0" x2="1" y2="0" gradientUnits="userSpaceOnUse" gradientTransform="matrix(458.245,-219.664,595.146,169.135,-51.6829,146.132)"><stop offset="0" style="stop-color:rgb(218,120,22);stop-opacity:1"/><stop offset="1" style="stop-color:rgb(141,0,91);stop-opacity:1"/></linearGradient>
        <linearGradient id="_Linear57" x1="0" y1="0" x2="1" y2="0" gradientUnits="userSpaceOnUse" gradientTransform="matrix(458.245,-219.664,595.146,169.135,82.0662,88.8648)"><stop offset="0" style="stop-color:rgb(218,120,22);stop-opacity:1"/><stop offset="1" style="stop-color:rgb(141,0,91);stop-opacity:1"/></linearGradient>
        <linearGradient id="_Linear58" x1="0" y1="0" x2="1" y2="0" gradientUnits="userSpaceOnUse" gradientTransform="matrix(359.543,-93.7874,129.253,260.889,129.961,49.1107)"><stop offset="0" style="stop-color:rgb(218,120,22);stop-opacity:1"/><stop offset="1" style="stop-color:rgb(141,0,91);stop-opacity:1"/></linearGradient>
        <linearGradient id="_Linear59" x1="0" y1="0" x2="1" y2="0" gradientUnits="userSpaceOnUse" gradientTransform="matrix(380.361,51.967,-72.5842,272.321,-132.79,-162.065)"><stop offset="0" style="stop-color:rgb(218,120,22);stop-opacity:1"/><stop offset="1" style="stop-color:rgb(141,0,91);stop-opacity:1"/></linearGradient>
    </defs>
</svg>
